# xmcd
#
# Track frame offsets:
#	150
#	8769
#	22351
#	35273
#	51611
#	65627
#	75886
#	89416
#	101459
#	115531
#	129454
#	139331
#	161281
#	174678
#	188941
#	202445
#	211568
#	219365
#	232719
#	243578
#
# Disc length: 3484 seconds
#
# Revision: 1
# Processed by: cddbd v1.5.1PL2 Copyright (c) Steve Scherf et al.
# Submitted via: audiograbber 1.83.01
#
DISCID=130d9a14
DTITLE=Various Artist - Tumbling Down -40 Great NZ Country Hits Cd 2 of 2
DYEAR=2003
DGENRE=Country
TTITLE0=Maria Dallas - Pinocchio
TTITLE1=Brendan Beleski - Before The Next Teardrop Falls
TTITLE2=Trevor Dawe - Last Date
TTITLE3=Suzanne Prentice - The Other Side Of Me
TTITLE4=Noel Parlane - Waiting For A Train
TTITLE5=Brendan Dugan - McKenzie And His Dog
TTITLE6=Dusty Spittle - The Kingston Flyer
TTITLE7=Kitten - Don't Run Away And Hide
TTITLE8=Jeff Rea - Song And Dance Man
TTITLE9=Cole Wilson and His Tumbleweeds - The Outlaw
TTITLE10=Max Whitehouse - When My Moon Turns To Gold Again
TTITLE11=Garner Wayne and His Saddle Pals - Roaming Round New Zealand
TTITLE12=Roger Tibbs - Where Did All The Yodellers Go
TTITLE13=Tex Morton - Rocking Alone In Her Old Rocking Chair
TTITLE14=Brian McCauley - Bozo's Song
TTITLE15=Averill Charteris and Santa Fe - Truck Drivin' Woman
TTITLE16=Jenny Blackadder - San Antonio Rose
TTITLE17=Suzanne Prentice - Even Cowgirls Get The Blues
TTITLE18=Reg and Marion - Blackboard Of My Heart
TTITLE19=Roger Tibbs - My Sweet Forget-Me-Not
EXTD=
EXTT0=Track 01 re-recorded version of Pinocchio
EXTT1=
EXTT2=
EXTT3=
EXTT4=
EXTT5=
EXTT6=
EXTT7=
EXTT8=
EXTT9=
EXTT10=
EXTT11=
EXTT12=
EXTT13=
EXTT14=
EXTT15=
EXTT16=
EXTT17=
EXTT18=
EXTT19=
PLAYORDER=
